<svg xmlns="http://www.w3.org/2000/svg" viewBox="0 0 148.32 124.12"><defs><style>.cls-1{fill:#084fff;}.cls-2{fill:#fff;}</style></defs><title>Asset 9</title><g id="Layer_2" data-name="Layer 2"><g id="Layer_2-2" data-name="Layer 2"><path class="cls-1" d="M45.5,34.87,55.94,17,66.38,34.87,93.82,81.76H72.94l-17-29.05L0,112.78,27.3,90.84a62.07,62.07,0,0,0,113.85-9.08H127.43l-17-29.05L96.71,76.16,86.27,58.32,100,34.87,110.43,17l10.44,17.84,27.45,46.89-4.09-16c.08-1.23.12-2.48.12-3.74A62.06,62.06,0,1,0,21.72,75.59Z"/><path class="cls-2" d="M81.8,86.78a4.66,4.66,0,0,1,1.42,3.46,4.9,4.9,0,1,1-1.42-3.46Zm-3.44-.15a3.58,3.58,0,0,0-2.56,6.11,3.39,3.39,0,0,0,2.52,1.06,3.59,3.59,0,0,0,0-7.17Z"/><path class="cls-2" d="M91.17,95a.66.66,0,0,1-.46.19.61.61,0,0,1-.46-.2.6.6,0,0,1-.19-.46,2.53,2.53,0,0,0-.75-1.84,2.57,2.57,0,0,0-1.84-.78H85.54v2.6a.65.65,0,0,1-.65.65.65.65,0,0,1-.65-.65l0-8.47a.62.62,0,0,1,.19-.46.66.66,0,0,1,.46-.19.64.64,0,0,1,.46.19.63.63,0,0,1,.19.46l0,4.56h1.92A2.58,2.58,0,0,0,90.08,88a.65.65,0,0,1,.2-.46.63.63,0,0,1,.47-.19.58.58,0,0,1,.45.19.62.62,0,0,1,.19.46,3.74,3.74,0,0,1-1.16,2.76,3.14,3.14,0,0,1-.6.49,4.19,4.19,0,0,1,.6.5,3.78,3.78,0,0,1,1.14,2.77A.67.67,0,0,1,91.17,95Z"/><path class="cls-2" d="M99.16,91.3a.66.66,0,0,1-.46.19.65.65,0,0,1-.65-.66,2.12,2.12,0,0,0-.63-1.53,2.17,2.17,0,0,0-3.7,1.52v3.7a.65.65,0,0,1-.66.65.65.65,0,0,1-.46-.2.63.63,0,0,1-.18-.46v-3.7a3.38,3.38,0,0,1,1-2.45,3.46,3.46,0,0,1,5.9,2.48A.62.62,0,0,1,99.16,91.3Z"/><path class="cls-2" d="M106.64,88.55a3.75,3.75,0,0,1,1.13,2.77v3.25a.63.63,0,0,1-.2.47.64.64,0,0,1-.46.19.59.59,0,0,1-.45-.2.6.6,0,0,1-.19-.46v-.34a3.91,3.91,0,1,1,.18-5.68Zm-2.77.14a2.63,2.63,0,0,0-2.62,2.6,2.61,2.61,0,0,0,4.45,1.86,2.5,2.5,0,0,0,.77-1.83,2.61,2.61,0,0,0-2.6-2.63Z"/><path class="cls-2" d="M115.34,86.13a.61.61,0,0,1,.19-.45.65.65,0,0,1,1.11.46l0,5.22a3.76,3.76,0,0,1-1.16,2.75,3.9,3.9,0,0,1-5.53,0,3.92,3.92,0,0,1,0-5.53,3.92,3.92,0,0,1,5.38-.12Zm-.8,7.06a2.6,2.6,0,0,0,0-3.69,2.55,2.55,0,0,0-1.84-.77,2.52,2.52,0,0,0-1.85.76,2.49,2.49,0,0,0-.77,1.84,2.59,2.59,0,0,0,2.6,2.61A2.45,2.45,0,0,0,114.54,93.19Z"/><path class="cls-2" d="M118.31,88.76a.63.63,0,0,1-.46-.2.62.62,0,0,1-.19-.46.66.66,0,0,1,.19-.46.65.65,0,0,1,.46-.18l5.19,0a1.31,1.31,0,0,1,1.2.8,1.44,1.44,0,0,1,.08.79,1.14,1.14,0,0,1-.44.69L119,94l5.38,0a.63.63,0,0,1,.46.2.62.62,0,0,1,.19.46.63.63,0,0,1-.2.46.58.58,0,0,1-.45.19l-5.39,0a1.26,1.26,0,0,1-.73-.23,1.28,1.28,0,0,1-.47-.58,1.32,1.32,0,0,1-.08-.78,1.15,1.15,0,0,1,.43-.7l5.33-4.21Z"/><path class="cls-2" d="M132.19,93.29a.64.64,0,0,1,.58.71.62.62,0,0,1-.23.44,4.89,4.89,0,0,1-1.31.66,4.8,4.8,0,0,1-1.53.22,3.83,3.83,0,0,1-2.83-1.16,3.91,3.91,0,0,1,0-5.52,3.77,3.77,0,0,1,2.78-1.13,3.73,3.73,0,0,1,2.76,1.15,3.83,3.83,0,0,1,1.13,2.77.63.63,0,0,1-.2.46.6.6,0,0,1-.46.19l-5.78,0a2.58,2.58,0,0,0,.68,1.2,2.61,2.61,0,0,0,1.91.77,3.61,3.61,0,0,0,1.08-.15,3.54,3.54,0,0,0,.92-.44A.64.64,0,0,1,132.19,93.29Zm-5.06-2.54,5.05,0a2.67,2.67,0,0,0-.68-1.2,2.63,2.63,0,0,0-3.69,0A2.58,2.58,0,0,0,127.13,90.75Z"/></g></g></svg>